Coordinates
version=1
nRows=9
nColumns=24
inDegrees=yes

Units are S.I. units (second, meters, Newtons, ...)
Angles are in degrees.

endheader
time	pelvis_tilt	pelvis_list	pelvis_rotation	pelvis_tx	pelvis_ty	pelvis_tz	hip_flexion_r	hip_adduction_r	hip_rotation_r	knee_angle_r	ankle_angle_r	subtalar_angle_r	mtp_angle_r	hip_flexion_l	hip_adduction_l	hip_rotation_l	knee_angle_l	ankle_angle_l	subtalar_angle_l	mtp_angle_l	lumbar_extension	lumbar_bending	lumbar_rotation
      1.70366667	      7.91436959	      5.83721880	     -6.30374809	      1.35734437	      1.01970460	      0.27024615	      1.68575486	    -10.19003725	     -0.77303452	    -64.14579137	     -9.99842191	    -11.88369138	     -1.99458612	      0.66443548	     11.64969848	      7.36982596	    -16.27616362	      4.03255575	    -21.16507432	     -8.71396800	    -20.44396977	     -1.00458306	      1.32573205
      1.70783333	      7.98151532	      5.60425806	     -6.12196058	      1.36224255	      1.02082346	      0.26984139	      2.15385275	     -9.85112762	     -0.74747201	    -63.93858275	     -8.71224582	    -11.38577572	     -1.90996518	     -0.00897258	     11.43612663	      7.71270054	    -15.77374895	      3.98435499	    -21.28595944	     -8.71447417	    -20.54225308	     -0.62313811	      1.00213006
      1.71200000	      8.03656344	      5.37975206	     -5.95790661	      1.36709565	      1.02188515	      0.26945744	      2.63987392	     -9.52309040	     -0.70559925	    -63.69736740	     -7.46914855	    -10.90609900	     -1.83541279	     -0.66552447	     11.22425187	      8.03166827	    -15.26046362	      3.92686435	    -21.39963856	     -8.71582737	    -20.62631516	     -0.26136177	      0.70654519
      1.71616667	      8.11092056	      5.18038149	     -5.79304511	      1.37194195	      1.02292257	      0.26907169	      3.09979872	     -9.23273400	     -0.67801243	    -63.42172299	     -6.24922679	    -10.47288349	     -1.75721160	     -1.34868865	     11.03848709	      8.37718815	    -14.72294536	      3.80235557	    -21.58461367	     -8.72496331	    -20.73307360	      0.08086505	      0.35708750
      1.72033333	      8.17026376	      4.93577237	     -5.64353245	      1.37680628	      1.02392084	      0.26872054	      3.55992437	     -8.88558963	     -0.62762220	    -63.08263899	     -5.14190165	    -10.01754706	     -1.70581621	     -2.00423958	     10.79258766	      8.65515442	    -14.21771061	      3.78492063	    -21.66571884	     -8.72974161	    -20.81631494	      0.45630782	      0.13399219
      1.72450000	      8.23842947	      4.73562221	     -5.48158065	      1.38164322	      1.02485762	      0.26835809	      4.01282258	     -8.59407640	     -0.59735762	    -62.72699658	     -4.04120855	     -9.64089987	     -1.66205032	     -2.66788695	     10.59225611	      8.96334119	    -13.70086191	      3.69368880	    -21.80119946	     -8.74014477	    -20.91632854	      0.79019550	     -0.17431237
      1.72866667	      8.30027613	      4.50250896	     -5.33167743	      1.38646205	      1.02577008	      0.26802347	      4.45438298	     -8.26252266	     -0.55178144	    -62.30534019	     -3.04432170	     -9.26917675	     -1.63339628	     -3.32015096	     10.34653069	      9.22334322	    -13.18227500	      3.66380839	    -21.86915322	     -8.74822302	    -21.00063502	      1.15303612	     -0.39867374
      1.73283333	      8.35113098	      4.28935078	     -5.18896377	      1.39129825	      1.02659413	      0.26770805	      4.91095472	     -7.95420140	     -0.50104574	    -61.86427469	     -2.08437301	     -8.95725024	     -1.61660127	     -3.95691696	     10.11900136	      9.47866076	    -12.67451433	      3.61011826	    -21.95937986	     -8.75805350	    -21.07477499	      1.49121434	     -0.64084242
      1.73700000	      8.42302559	      4.10654675	     -5.04708031	      1.39609958	      1.02738110	      0.26738641	      5.34114553	     -7.69212716	     -0.46798945	    -61.39404084	     -1.14874694	     -8.70205720	     -1.62223898	     -4.61236719	      9.92456761	      9.75642171	    -12.15327799	      3.49044124	    -22.12879717	     -8.77531484	    -21.17719503	      1.79866611	     -0.92788179
